<?xml version="1.0" encoding="UTF-8"?>
<svg version="1.1" xmlns="http://www.w3.org/2000/svg" width="512" height="512">
<path d="M0 0 C5.80001292 4.14000922 9.01642848 9.62168696 10.265625 16.6171875 C11.00369682 24.12091767 9.40336043 30.75647156 4.5703125 36.703125 C-3.61234221 44.55449814 -16.06919008 45.74848101 -26.79541016 48.26147461 C-29.12667312 48.80874831 -31.45591892 49.36409779 -33.78515625 49.91992188 C-35.27592697 50.27132026 -36.76680852 50.62224889 -38.2578125 50.97265625 C-38.94950531 51.13823532 -39.64119812 51.30381439 -40.35385132 51.47441101 C-43.61414419 52.23139046 -46.35916358 52.6171875 -49.734375 52.6171875 C-49.734375 69.7771875 -49.734375 86.9371875 -49.734375 104.6171875 C-23.664375 104.6171875 2.405625 104.6171875 29.265625 104.6171875 C34.710625 120.9521875 34.710625 120.9521875 40.265625 137.6171875 C48.680625 138.1121875 48.680625 138.1121875 57.265625 138.6171875 C61.58304693 151.36276819 65.79582059 164.13355153 69.765625 176.9921875 C70.11560547 178.12060059 70.46558594 179.24901367 70.82617188 180.41162109 C71.14650391 181.45656738 71.46683594 182.50151367 71.796875 183.578125 C72.22323242 184.96717041 72.22323242 184.96717041 72.65820312 186.38427734 C73.265625 188.6171875 73.265625 188.6171875 73.265625 190.6171875 C63.035625 190.6171875 52.805625 190.6171875 42.265625 190.6171875 C41.935625 195.2371875 41.605625 199.8571875 41.265625 204.6171875 C42.255625 204.6171875 43.245625 204.6171875 44.265625 204.6171875 C44.265625 211.8771875 44.265625 219.1371875 44.265625 226.6171875 C48.885625 226.6171875 53.505625 226.6171875 58.265625 226.6171875 C58.265625 219.3571875 58.265625 212.0971875 58.265625 204.6171875 C73.445625 204.6171875 88.625625 204.6171875 104.265625 204.6171875 C104.265625 211.8771875 104.265625 219.1371875 104.265625 226.6171875 C118.785625 226.6171875 133.305625 226.6171875 148.265625 226.6171875 C148.265625 215.7271875 148.265625 204.8371875 148.265625 193.6171875 C163.775625 193.6171875 179.285625 193.6171875 195.265625 193.6171875 C195.265625 225.2971875 195.265625 256.9771875 195.265625 289.6171875 C198.565625 289.6171875 201.865625 289.6171875 205.265625 289.6171875 C205.59547925 299.56598876 204.35645991 309.31401548 203.26196289 319.18432617 C203.04638053 321.16451614 202.83126961 323.14475748 202.61659241 325.12504578 C202.03463034 330.48066451 201.44601662 335.83553316 200.85611653 341.19028258 C200.23892403 346.80266141 199.62767976 352.41568811 199.01573181 358.02864075 C197.98775958 367.44974292 196.95583518 376.87040512 195.92114258 386.29077148 C194.46267207 399.56954379 193.01177711 412.84913606 191.5621835 426.1288799 C190.55659766 435.33831583 189.54913078 444.54754612 188.54135585 453.75674272 C188.29733017 455.98684488 188.05336469 458.21695364 187.80945897 460.44706893 C187.11424091 466.80329361 186.41785693 473.15938826 185.71956444 479.51527596 C185.50834392 481.43930675 185.29750869 483.36337988 185.08708954 485.28749847 C184.79950622 487.91645145 184.51048444 490.54524243 184.22108459 493.17399597 C184.13839657 493.93275644 184.05570855 494.69151691 183.97051483 495.47327012 C183.85257621 496.5403945 183.85257621 496.5403945 183.73225498 497.62907696 C183.66580392 498.23462624 183.59935287 498.84017553 183.53088814 499.46407479 C183.15427389 502.52101259 182.70120983 505.56809372 182.265625 508.6171875 C123.525625 508.6171875 64.785625 508.6171875 4.265625 508.6171875 C3.935625 506.3071875 3.605625 503.9971875 3.265625 501.6171875 C-5.70606999 501.65535349 -14.67730272 501.71487238 -23.64866543 501.80109024 C-27.81518994 501.84047304 -31.98150603 501.87270624 -36.14819336 501.88818359 C-40.17498526 501.90341131 -44.2012038 501.93796361 -48.22773933 501.98549652 C-49.7581386 502.0002477 -51.28861976 502.0082249 -52.81908989 502.00907135 C-63.55717117 501.9936385 -63.55717117 501.9936385 -73.54926682 505.56995487 C-82.03909551 509.63878116 -91.98014302 508.90915711 -101.16723633 508.8918457 C-102.70425156 508.89620088 -104.24126463 508.9013867 -105.77827454 508.90733337 C-109.92720801 508.92064908 -114.07604997 508.92131029 -118.22500062 508.91877007 C-121.70125859 508.91769513 -125.17749844 508.92259713 -128.65375251 508.9273755 C-136.86236265 508.93844536 -145.07092703 508.93892255 -153.27954102 508.93286133 C-161.71831724 508.92682547 -170.15692657 508.93912847 -178.59567434 508.9604314 C-185.86736728 508.97810614 -193.13900739 508.98403947 -200.410721 508.98079365 C-204.74205392 508.97898973 -209.07326781 508.9815271 -213.40458107 508.99550819 C-217.48163488 509.00817771 -221.55843056 509.00605724 -225.63548088 508.99309731 C-227.12164527 508.99075155 -228.60782834 508.99339334 -230.09397125 509.00172043 C-243.05549733 509.06904188 -254.66396759 507.74843154 -265.734375 500.6171875 C-266.724375 500.0809375 -267.714375 499.5446875 -268.734375 498.9921875 C-279.87570142 490.17197075 -285.96626507 478.49816992 -287.734375 464.6171875 C-288.45496094 464.5346875 -289.17554688 464.4521875 -289.91796875 464.3671875 C-295.93535652 462.76477633 -300.64094763 457.44038472 -304.26953125 452.546875 C-307.84248876 445.81076156 -307.67017089 438.01705249 -306.734375 430.6171875 C-305.07289383 425.77988625 -302.55405819 421.84671229 -299.734375 417.6171875 C-300.3325 416.9365625 -300.930625 416.2559375 -301.546875 415.5546875 C-307.4123116 407.67824406 -307.79026393 400.31309063 -306.734375 390.6171875 C-304.61189657 383.19833927 -300.10191618 377.87462732 -293.734375 373.6171875 C-290.234375 372.1796875 -290.234375 372.1796875 -287.734375 371.6171875 C-287.72019531 370.9365625 -287.70601563 370.2559375 -287.69140625 369.5546875 C-286.72091133 349.830034 -277.91037615 332.0480459 -264.734375 317.6171875 C-263.74630859 316.52470703 -263.74630859 316.52470703 -262.73828125 315.41015625 C-248.42821609 300.35147601 -226.40438704 290.12424928 -205.5370636 289.55751038 C-203.13755332 289.54369857 -200.7393151 289.55159569 -198.33984375 289.5703125 C-197.50980835 289.57369629 -196.67977295 289.57708008 -195.82458496 289.58056641 C-193.7944972 289.58933253 -191.76443057 289.60278143 -189.734375 289.6171875 C-189.80954346 288.58338959 -189.88471191 287.54959167 -189.9621582 286.48446655 C-190.67378711 276.68824798 -191.38007435 266.89165658 -192.08128357 257.09468651 C-192.44185174 252.05934868 -192.80422734 247.0241552 -193.17089844 241.98925781 C-193.52542781 237.12012739 -193.87499408 232.25066265 -194.22128296 227.38093948 C-194.35349919 225.53352039 -194.48743086 223.68622316 -194.62319946 221.83906174 C-195.38948483 211.39669699 -195.88377346 201.09375422 -195.734375 190.6171875 C-203.654375 190.6171875 -211.574375 190.6171875 -219.734375 190.6171875 C-217.4318764 180.77923894 -214.5030309 171.20855273 -211.43603516 161.58642578 C-210.60034866 158.96386089 -209.77047798 156.33950644 -208.94140625 153.71484375 C-208.41179196 152.04416503 -207.88185612 150.37358821 -207.3515625 148.703125 C-207.1036496 147.91988861 -206.85573669 147.13665222 -206.60031128 146.3296814 C-204.85070765 140.84985279 -204.85070765 140.84985279 -203.734375 138.6171875 C-198.124375 138.2871875 -192.514375 137.9571875 -186.734375 137.6171875 C-183.104375 126.7271875 -179.474375 115.8371875 -175.734375 104.6171875 C-149.664375 104.6171875 -123.594375 104.6171875 -96.734375 104.6171875 C-96.734375 75.5771875 -96.734375 46.5371875 -96.734375 16.6171875 C-91.23040664 14.78253138 -86.02954642 13.09799007 -80.44555664 11.71606445 C-79.77755539 11.54981567 -79.10955414 11.38356689 -78.42131042 11.21228027 C-76.24672403 10.67250252 -74.07079185 10.13845366 -71.89453125 9.60546875 C-71.14298704 9.42066641 -70.39144283 9.23586407 -69.61712456 9.04546165 C-65.64492209 8.06873263 -61.67169471 7.09631547 -57.69750977 6.12768555 C-53.61900949 5.13280039 -49.54415733 4.12374233 -45.46997929 3.11132526 C-42.31036601 2.32886004 -39.14827542 1.55679736 -35.98544121 0.78746605 C-34.48277892 0.42011388 -32.98103507 0.04898137 -31.48030281 -0.3261776 C-10.1476071 -5.6481964 -10.1476071 -5.6481964 0 0 Z " fill="#010101" transform="translate(306.734375,3.3828125)"/>
<path d="M0 0 C15.51 0 31.02 0 47 0 C47 31.68 47 63.36 47 96 C50.3 96 53.6 96 57 96 C57.32985425 105.94880126 56.09083491 115.69682798 54.99633789 125.56713867 C54.78075553 127.54732864 54.56564461 129.52756998 54.35096741 131.50785828 C53.76900534 136.86347701 53.18039162 142.21834566 52.59049153 147.57309508 C51.97329903 153.18547391 51.36205476 158.79850061 50.75010681 164.41145325 C49.72213458 173.83255542 48.69021018 183.25321762 47.65551758 192.67358398 C46.19704707 205.95235629 44.74615211 219.23194856 43.2965585 232.5116924 C42.29097266 241.72112833 41.28350578 250.93035862 40.27573085 260.13955522 C40.03170517 262.36965738 39.78773969 264.59976614 39.54383397 266.82988143 C38.84861591 273.18610611 38.15223193 279.54220076 37.45393944 285.89808846 C37.24271892 287.82211925 37.03188369 289.74619238 36.82146454 291.67031097 C36.53388122 294.29926395 36.24485944 296.92805493 35.95545959 299.55680847 C35.87277157 300.31556894 35.79008355 301.07432941 35.70488983 301.85608262 C35.58695121 302.923207 35.58695121 302.923207 35.46662998 304.01188946 C35.40017892 304.61743874 35.33372787 305.22298803 35.26526314 305.84688729 C34.88864889 308.90382509 34.43558483 311.95090622 34 315 C-24.74 315 -83.48 315 -144 315 C-144.58105486 310.93261595 -145.11898849 307.07667052 -145.4140625 303.015625 C-146.22110542 292.91031713 -147.32306696 282.83212976 -148.375 272.75 C-148.48704773 271.6725351 -148.59909546 270.59507019 -148.71453857 269.48495483 C-150.01517027 257.00021514 -151.35938642 244.53060427 -152.98046875 232.08300781 C-154.29086691 221.94950741 -155.29874387 211.78682234 -156.32733154 201.62149048 C-157.32534457 191.76665131 -158.350753 181.91464067 -159.375 172.0625 C-159.47982697 171.05239868 -159.58465393 170.04229736 -159.69265747 169.00158691 C-160.91065537 157.27258031 -162.15051664 145.54629728 -163.43359375 133.82421875 C-163.54987122 132.76119034 -163.66614868 131.69816193 -163.78594971 130.60292053 C-164.34576484 125.49147196 -164.90878554 120.38039982 -165.47607422 115.26977539 C-165.67809526 113.43506249 -165.8800828 111.6003459 -166.08203125 109.765625 C-166.22226967 108.51594185 -166.22226967 108.51594185 -166.36534119 107.24101257 C-166.74299389 103.79653886 -167 100.47001809 -167 97 C-161.06 97 -155.12 97 -149 97 C-149 68.62 -149 40.24 -149 11 C-134.15 11 -119.3 11 -104 11 C-104 18.26 -104 25.52 -104 33 C-99.38 33 -94.76 33 -90 33 C-90 25.74 -90 18.48 -90 11 C-74.82 11 -59.64 11 -44 11 C-44 18.26 -44 25.52 -44 33 C-29.48 33 -14.96 33 0 33 C0 22.11 0 11.22 0 0 Z " fill="#020100" transform="translate(455,197)"/>
<path d="M0 0 C73.59 0 147.18 0 223 0 C222.67 4.95 222.34 9.9 222 15 C208.14 15 194.28 15 180 15 C180 43.38 180 71.76 180 101 C174.06 101 168.12 101 162 101 C162.28230469 102.71316406 162.56460938 104.42632812 162.85546875 106.19140625 C164.32145552 115.73769587 165.29387061 125.33509486 166.3125 134.9375 C166.53021659 136.96951469 166.74824031 139.0014965 166.96655273 141.03344727 C167.30537356 144.18820448 167.64388535 147.34299266 167.98121643 150.49790955 C168.74325354 157.62470039 169.5160135 164.75024832 170.296875 171.875 C172.25406008 189.74449828 174.18465629 207.61548561 176 225.5 C177.48741885 240.15180997 179.03744563 254.79619734 180.625 269.4375 C180.72941406 270.40445801 180.83382812 271.37141602 180.94140625 272.36767578 C182.07442493 282.84989137 183.25358686 293.31850743 184.64599609 303.76977539 C185 307 185 307 185 312 C161.9 312 138.8 312 115 312 C120.21929825 306.78070175 120.21929825 306.78070175 123.3125 304.5625 C130.30282241 298.62530477 134.55472193 289.27576972 136.8125 280.5625 C138.26952298 275.61646235 139.9248741 273.94445358 144.375 271.375 C145.82132812 270.58802734 145.82132812 270.58802734 147.296875 269.78515625 C152.14028927 266.58654307 154.87223683 261.51721138 156.625 256.05078125 C158.2832282 246.9823458 157.06637747 239.70703482 152 232 C151.34 231.34 150.68 230.68 150 230 C150.28328739 226.03397651 152.84240499 223.20370168 155 220 C158.11028901 213.49265774 158.20609316 206.05583887 156.16015625 199.17578125 C153.42069217 193.15264979 149.50763021 188.67175348 144 185 C142.700625 184.70029297 142.700625 184.70029297 141.375 184.39453125 C139 183 139 183 138.30859375 181.18115234 C137.77027229 178.69141561 137.36950049 176.20780032 137 173.6875 C132.7691984 149.54641313 120.12883777 130.99429072 100.62109375 116.1953125 C85.80933253 106.01929334 69.1677182 101.75354177 51.43359375 101.5859375 C50.15895767 101.56657135 48.88432159 101.5472052 47.57106018 101.5272522 C44.21252731 101.47787583 40.85409602 101.43649319 37.49542236 101.39910889 C34.05609651 101.35881664 30.61692995 101.30784056 27.17773438 101.2578125 C20.45192604 101.16211764 13.72604726 101.07697318 7 101 C3.77225941 67.27117364 3.77225941 67.27117364 3.29125977 54.22949219 C3.0974762 49.07685209 2.57410906 44.16698157 2 39 C1.34 26.13 0.68 13.26 0 0 Z " fill="#00E4FE" transform="translate(126,193)"/>
<path d="M0 0 C6.27 0 12.54 0 19 0 C21.46532618 6.93523174 23.92638503 13.8719426 26.38006496 20.81130409 C27.51970494 24.03383605 28.66116609 27.25569792 29.80688477 30.47607422 C31.12547805 34.18262319 32.43597953 37.89200762 33.74609375 41.6015625 C34.36175453 43.32688705 34.36175453 43.32688705 34.98985291 45.08706665 C35.37017166 46.16773407 35.75049042 47.24840149 36.14233398 48.36181641 C36.47764633 49.30779694 36.81295868 50.25377747 37.15843201 51.22842407 C38 54 38 54 39 60 C93.945 59.505 93.945 59.505 150 59 C160.395 29.795 160.395 29.795 171 0 C177.27 0 183.54 0 190 0 C189.31407132 12.8725949 188.05139148 25.62785317 186.625 38.4375 C186.3977484 40.50388417 186.17069918 42.57029062 185.94384766 44.63671875 C184.70329016 55.89451934 183.40513374 67.14289855 182.01953125 78.38378906 C181.11523211 85.80869462 180.3539033 93.24348759 179.625 100.6875 C178.42644387 112.92513216 177.14800359 125.15285547 175.82440186 137.37759399 C175.61276657 139.33306027 175.40183667 141.28860306 175.19171143 143.24423218 C173.62051693 157.8532981 171.82286251 172.41709994 170 187 C120.5 187 71 187 20 187 C17.65819641 168.26557129 17.65819641 168.26557129 16.81640625 161.26953125 C16.71645859 160.43950089 16.61651093 159.60947052 16.51353455 158.75428772 C14.33194591 140.59655242 12.25437216 122.43806014 10.42871094 104.24072266 C9.61953585 96.20807968 8.78104114 88.17841288 7.94589233 80.1484375 C7.7325932 78.09719562 7.51955858 76.04592622 7.30679321 73.99462891 C6.0923823 62.29096282 4.85397562 50.59039124 3.56640625 38.89453125 C3.45012878 37.83623611 3.33385132 36.77794098 3.21405029 35.68757629 C2.65525786 30.60637977 2.09263013 25.52565329 1.52392578 20.44555664 C1.32183804 18.61736154 1.11984706 16.78915574 0.91796875 14.9609375 C0.82447647 14.13813797 0.73098419 13.31533844 0.63465881 12.46760559 C0.55050217 11.70018539 0.46634552 10.9327652 0.37963867 10.14208984 C0.30589523 9.48300629 0.23215179 8.82392273 0.15617371 8.14486694 C-0.04102402 5.43658202 0 2.71545469 0 0 Z " fill="#F04F1D" transform="translate(305,309)"/>
<path d="M0 0 C0.85156677 -0.00335861 1.70313354 -0.00671722 2.58050537 -0.01017761 C5.37359101 -0.01961493 8.16661624 -0.02162706 10.9597168 -0.02270508 C12.91733321 -0.02592263 14.87494939 -0.02928707 16.83256531 -0.03279114 C20.92858436 -0.03876433 25.02458237 -0.0406329 29.12060547 -0.04003906 C34.3454633 -0.03993753 39.57018496 -0.05358837 44.79501057 -0.07081127 C48.83671172 -0.08197955 52.87838045 -0.08395679 56.92009544 -0.08342934 C58.8452317 -0.08460223 60.77036898 -0.08898482 62.69548988 -0.0967617 C75.34336199 -0.14307425 87.29892419 -0.10360188 99.03393555 5.20776367 C99.71069336 5.51012939 100.38745117 5.81249512 101.0847168 6.12402344 C107.80879342 9.26324742 113.45563588 13.30787625 119.09643555 18.14526367 C119.82217773 18.75885742 120.54791992 19.37245117 121.2956543 20.00463867 C130.97435873 28.90372251 137.14537965 40.7629367 141.09643555 53.14526367 C141.30268555 53.76143555 141.50893555 54.37760742 141.72143555 55.01245117 C142.30672851 58.34130489 142.09643555 61.76534727 142.09643555 65.14526367 C71.47643555 65.14526367 0.85643555 65.14526367 -71.90356445 65.14526367 C-71.90356445 47.51212554 -62.64506933 32.31179058 -50.6652832 19.80932617 C-36.51531723 6.23832771 -19.41332781 -0.01119074 0 0 Z " fill="#FCD7A7" transform="translate(106.903564453125,308.854736328125)"/>
<path d="M0 0 C73.59 0 147.18 0 223 0 C222.67 4.95 222.34 9.9 222 15 C208.14 15 194.28 15 180 15 C180 43.38 180 71.76 180 101 C174.06 101 168.12 101 162 101 C162.28230469 102.71316406 162.56460938 104.42632812 162.85546875 106.19140625 C164.32145552 115.73769587 165.29387061 125.33509486 166.3125 134.9375 C166.53021659 136.96951469 166.74824031 139.0014965 166.96655273 141.03344727 C167.30537356 144.18820448 167.64388535 147.34299266 167.98121643 150.49790955 C168.74325354 157.62470039 169.5160135 164.75024832 170.296875 171.875 C172.25406008 189.74449828 174.18465629 207.61548561 176 225.5 C177.48741885 240.15180997 179.03744563 254.79619734 180.625 269.4375 C180.72941406 270.40445801 180.83382812 271.37141602 180.94140625 272.36767578 C182.07442493 282.84989137 183.25358686 293.31850743 184.64599609 303.76977539 C185 307 185 307 185 312 C161.9 312 138.8 312 115 312 C120.21929825 306.78070175 120.21929825 306.78070175 123.3125 304.5625 C130.30282241 298.62530477 134.55472193 289.27576972 136.8125 280.5625 C138.26952298 275.61646235 139.9248741 273.94445358 144.375 271.375 C145.82132812 270.58802734 145.82132812 270.58802734 147.296875 269.78515625 C152.14028927 266.58654307 154.87223683 261.51721138 156.625 256.05078125 C158.2832282 246.9823458 157.06637747 239.70703482 152 232 C151.34 231.34 150.68 230.68 150 230 C150.28328739 226.03397651 152.84240499 223.20370168 155 220 C158.11028901 213.49265774 158.20609316 206.05583887 156.16015625 199.17578125 C153.42069217 193.15264979 149.50763021 188.67175348 144 185 C142.700625 184.70029297 142.700625 184.70029297 141.375 184.39453125 C139 183 139 183 138.30859375 181.18115234 C137.77027229 178.69141561 137.36950049 176.20780032 137 173.6875 C132.7691984 149.54641313 120.12883777 130.99429072 100.62109375 116.1953125 C85.80933253 106.01929334 69.1677182 101.75354177 51.43359375 101.5859375 C50.15895767 101.56657135 48.88432159 101.5472052 47.57106018 101.5272522 C44.21252731 101.47787583 40.85409602 101.43649319 37.49542236 101.39910889 C34.05609651 101.35881664 30.61692995 101.30784056 27.17773438 101.2578125 C20.45191755 101.16211751 13.7260448 101.07796292 7 101 C6.505 94.565 6.505 94.565 6 88 C13.52154436 87.92507274 21.04286486 87.8710347 28.56469727 87.83520508 C31.11616813 87.82024657 33.66761386 87.79987245 36.21899414 87.77368164 C54.17829255 87.59412386 71.39174531 87.48072402 88.1875 94.625 C89.0228125 94.97199951 89.858125 95.31899902 90.71875 95.67651367 C116.73014992 106.8567208 135.53226391 128.20664829 146.29980469 154.14355469 C148.70863979 160.53015934 150.21274501 167.16713084 150 174 C150.804375 174.309375 151.60875 174.61875 152.4375 174.9375 C155 176 155 176 156 177 C156.10233609 170.57911806 155.74011748 164.38390909 155.01171875 158.0078125 C154.9087146 157.07158554 154.80571045 156.13535858 154.69958496 155.17076111 C154.36671475 152.15499002 154.0270846 149.14002165 153.6875 146.125 C153.4576041 144.0488004 153.2281954 141.9725468 152.99926758 139.89624023 C152.08977114 131.66622354 151.16632931 123.43780532 150.22770691 115.21105957 C150.00943328 113.29754156 149.79240815 111.38388126 149.57543945 109.47021484 C149.32535846 107.27346811 149.07157069 105.07713864 148.81323242 102.88134766 C148.70342041 101.92147949 148.5936084 100.96161133 148.48046875 99.97265625 C148.38660889 99.17093994 148.29274902 98.36922363 148.19604492 97.54321289 C147.95150411 94.3708821 148 91.18174211 148 88 C154.27 88 160.54 88 167 88 C167 63.25 167 38.5 167 13 C112.22 13 57.44 13 1 13 C0.67 8.71 0.34 4.42 0 0 Z " fill="#3EC1FB" transform="translate(126,193)"/>
<path d="M0 0 C36.3 0 72.6 0 110 0 C108.13522263 22.37732843 105.59355942 44.695389 103 67 C71.32 67 39.64 67 7 67 C4.28173695 44.71024298 1.72221168 22.38875184 0 0 Z " fill="#AFBDC4" transform="translate(345,399)"/>
<path d="M0 0 C1.4395103 -0.00701996 1.4395103 -0.00701996 2.90810162 -0.01418173 C6.12629837 -0.02615507 9.34407114 -0.01666515 12.56227112 -0.00723267 C14.86851755 -0.01129734 17.17476203 -0.01663864 19.48100281 -0.02316284 C25.74748711 -0.03685526 32.01382346 -0.03152956 38.28031039 -0.02202559 C44.83451157 -0.0144381 51.38869995 -0.02147215 57.94290161 -0.02618408 C69.65675063 -0.03259471 81.37053734 -0.02266194 93.08437557 -0.00740607 C103.70187806 0.00599399 114.31928213 0.00367167 124.93678284 -0.01016235 C137.26909634 -0.02622319 149.60134709 -0.03218936 161.93366963 -0.02332556 C168.46080295 -0.01864644 174.9878685 -0.01803075 181.51499748 -0.02793503 C187.652092 -0.03659663 193.78900057 -0.03059728 199.92607498 -0.01325226 C202.1795235 -0.00928297 204.43298766 -0.010429 206.68642998 -0.01704025 C209.76056615 -0.0252282 212.83410508 -0.01496691 215.90820312 0 C216.80168833 -0.00669217 217.69517353 -0.01338433 218.61573404 -0.02027929 C224.8981101 0.03911754 229.13935227 1.19046569 233.89259338 5.56845093 C236.0028521 9.22082178 236.30776641 12.31036259 235.51759338 16.38095093 C233.24042946 20.85093937 231.05704825 23.29531659 226.51759338 25.38095093 C223.33080831 25.81888736 220.17198243 25.79430553 216.95925903 25.77536011 C215.99141839 25.78145121 215.02357776 25.78754231 214.02640861 25.793818 C210.78059406 25.81047828 207.53517049 25.80566779 204.2893219 25.8008728 C201.96336966 25.80821132 199.63742108 25.81679691 197.31147766 25.82653809 C190.99129235 25.84878463 184.67123729 25.85168321 178.35101819 25.84979057 C173.07745449 25.84967103 167.80391854 25.85822863 162.53036255 25.86656809 C149.37962012 25.88735377 136.22894714 25.88794808 123.07819407 25.88076097 C111.65935411 25.87518482 100.24073846 25.89601457 88.82195092 25.92912143 C77.09447562 25.96285918 65.36710779 25.97802674 53.63958305 25.97340441 C47.05649449 25.97133419 40.47362935 25.9768586 33.89058113 26.001297 C27.70087035 26.02351562 21.51162735 26.02172651 15.32191467 26.00136948 C13.04910865 25.99795091 10.77627142 26.00308472 8.50350761 26.01735306 C5.40275969 26.03547762 2.30361019 26.022846 -0.79708862 26.00241089 C-2.14898927 26.02118766 -2.14898927 26.02118766 -3.52820104 26.04034376 C-7.82045848 25.97961763 -10.6067137 25.72198075 -14.00180149 22.95929718 C-17.37859407 19.44945177 -18.31965289 17.84573446 -18.85740662 13.00595093 C-18.40756079 8.65744124 -17.28031085 6.7081884 -14.48240662 3.38095093 C-9.90152481 -0.29840191 -5.61105482 -0.04192189 0 0 Z " fill="#66DD19" transform="translate(33.48240661621094,388.6190490722656)"/>
<path d="M0 0 C47.52 0 95.04 0 144 0 C142.79241461 13.28343927 141.56546241 26.54069436 140.08984375 39.79296875 C139.91564333 41.36858617 139.74153769 42.94421406 139.56752014 44.51985168 C139.20851224 47.76559687 138.84787672 51.01115589 138.48608398 54.2565918 C138.02282191 58.41416999 137.56465546 62.57229331 137.10771847 66.73057079 C136.752274 69.9589422 136.39381111 73.18697301 136.03445625 76.41491127 C135.86398189 77.95020493 135.69454052 79.48561367 135.52616692 81.02113914 C135.2926353 83.14751249 135.05494508 85.27338078 134.81616211 87.39916992 C134.68229599 88.60522385 134.54842987 89.81127777 134.4105072 91.05387878 C134 94 134 94 133 97 C92.41 97 51.82 97 10 97 C8.35 81.16 6.7 65.32 5 49 C3.9643307 39.41302664 2.92241776 29.82708288 1.86157227 20.24291992 C1.54571953 17.38474624 1.2317573 14.52636965 0.91796875 11.66796875 C0.82428513 10.82783737 0.7306015 9.98770599 0.63407898 9.12211609 C0.29887886 6.06495029 0 3.0781458 0 0 Z M17 15 C18.72221168 37.38875184 21.28173695 59.71024298 24 82 C55.68 82 87.36 82 120 82 C122.59355942 59.695389 125.13522263 37.37732843 127 15 C90.7 15 54.4 15 17 15 Z " fill="#020101" transform="translate(328,384)"/>
<path d="M0 0 C2.16894531 1.19580078 2.16894531 1.19580078 4.328125 2.6953125 C5.12863281 3.24703125 5.92914063 3.79875 6.75390625 4.3671875 C7.57761719 4.94726562 8.40132813 5.52734375 9.25 6.125 C10.05824219 6.681875 10.86648437 7.23875 11.69921875 7.8125 C16.67411855 11.26707042 21.35041442 14.88672769 25.88574219 18.90576172 C27.97686771 20.26918836 27.97686771 20.26918836 30.41845703 19.50195312 C32.9537023 18.02693621 34.83073854 16.30890547 36.94650269 14.29867554 C47.88598569 4.59723726 62.18048778 6.91983309 75.875 7.375 C78.50902976 7.42523682 81.14315197 7.47085069 83.77734375 7.51171875 C90.18693543 7.62113611 96.5930303 7.78780407 103 8 C100.75087894 17.35686693 97.3345699 23.79379299 89.41796875 29.61328125 C88.62003906 30.07089844 87.82210937 30.52851563 87 31 C86.45511429 31.32761857 85.91022858 31.65523714 85.34883118 31.99278355 C77.94536171 35.89558483 70.39150817 35.5574171 62.25 35.50170898 C60.66723145 35.50549749 59.08446623 35.5110019 57.50170898 35.51808167 C53.22477211 35.5319843 48.94823988 35.52090325 44.67132568 35.50437045 C40.18322475 35.49046475 35.69514599 35.4969863 31.20703125 35.50050354 C23.6718091 35.50320131 16.13674664 35.48976739 8.6015625 35.46655273 C-0.09460824 35.43994573 -8.7905121 35.43819753 -17.48670959 35.4499411 C-25.87219639 35.46074213 -34.25758721 35.45451358 -42.64306641 35.44038582 C-46.20265996 35.43464617 -49.76218281 35.43469273 -53.32177734 35.43945122 C-57.51784576 35.4442441 -61.71362413 35.43402425 -65.90963745 35.41249657 C-67.44423444 35.40695987 -68.97885947 35.40643456 -70.51345825 35.41144943 C-83.56282011 35.44872695 -93.13613426 33.73673627 -102.69140625 24.3359375 C-106.82656606 19.79658914 -111 14.32457616 -111 8 C-103.73239759 7.71887292 -96.46601086 7.5072369 -89.19402409 7.37825394 C-85.8149445 7.31626242 -82.43964627 7.23260578 -79.06274414 7.09472656 C-63.02663622 6.48835659 -51.11280654 6.42829612 -38.66186523 17.40136719 C-37.78344971 18.25891602 -36.90503418 19.11646484 -36 20 C-33.34987972 18.72779695 -30.91543495 17.34775782 -28.49609375 15.6796875 C-27.84294189 15.23012695 -27.18979004 14.78056641 -26.5168457 14.31738281 C-25.83066162 13.84139648 -25.14447754 13.36541016 -24.4375 12.875 C-23.72875732 12.38870117 -23.02001465 11.90240234 -22.28979492 11.40136719 C-19.03134177 9.15456508 -15.80826379 6.88611554 -12.6796875 4.4609375 C-11.73351562 3.73132813 -10.78734375 3.00171875 -9.8125 2.25 C-8.99394531 1.59515625 -8.17539063 0.9403125 -7.33203125 0.265625 C-4.32915841 -1.36407483 -3.23689176 -0.92190146 0 0 Z " fill="#FCD7A7" transform="translate(146,461)"/>
<path d="M0 0 C78.87 0 157.74 0 239 0 C240.98 6.6 242.96 13.2 245 20 C162.5 20 80 20 -5 20 C-4 12 -4 12 0 0 Z " fill="#FEFEFE" transform="translate(114,158)"/>
<path d="M0 0 C60.39 0 120.78 0 183 0 C188 15 188 15 188 19 C124.31 19 60.62 19 -5 19 C-4 12 -4 12 0 0 Z " fill="#D8D7DA" transform="translate(142,124)"/>
<path d="M0 0 C83.82 0 167.64 0 254 0 C253.04812889 5.71122666 252.77878972 7.11324486 249 11 C246.17723847 12.69210371 244.09873974 13.25112707 240.82325172 13.26006222 C239.99342297 13.26712781 239.16359422 13.2741934 238.30861914 13.2814731 C237.40220848 13.27905802 236.49579782 13.27664293 235.56192017 13.27415466 C234.11144085 13.28200968 234.11144085 13.28200968 232.63165891 13.29002339 C229.38281571 13.30505712 226.13412954 13.30572928 222.88525391 13.30639648 C220.55945061 13.31401564 218.23364984 13.32244272 215.90785217 13.33161926 C209.58350287 13.35359391 203.25920192 13.36236706 196.93481874 13.36744571 C192.98553548 13.37108548 189.03626496 13.37732353 185.08698654 13.3844471 C174.15114666 13.40390448 163.21531735 13.42041671 152.279459 13.42332363 C151.22994798 13.42360499 151.22994798 13.42360499 150.15923472 13.42389202 C148.74085101 13.42425827 147.32246729 13.42462197 145.90408356 13.42498314 C145.20000357 13.42516595 144.49592357 13.42534876 143.77050781 13.42553711 C143.06556798 13.42571766 142.36062815 13.42589821 141.6343265 13.42608423 C130.20896411 13.42962672 118.78379009 13.45665468 107.35849304 13.494035 C95.62653859 13.53211135 83.89467763 13.55148105 72.16266 13.55178314 C65.57619125 13.55257728 58.98996555 13.56137916 52.40355301 13.58978081 C46.20976822 13.61589166 40.01642921 13.61820537 33.82261467 13.60212517 C31.54819075 13.60030519 29.2737416 13.60705059 26.99937248 13.62294388 C23.89639896 13.64330712 20.79499948 13.63290913 17.69204712 13.61473083 C16.33912329 13.63453079 16.33912329 13.63453079 14.95886767 13.65473074 C10.67211538 13.59729315 7.87619777 13.34325816 4.48018456 10.59048557 C0.85215065 6.80110246 0 5.27908955 0 0 Z " fill="#AFEE5F" transform="translate(15,401)"/>
<path d="M0 0 C0.33 0.66 0.66 1.32 1 2 C69.64 2 138.28 2 209 2 C209.33 1.34 209.66 0.68 210 0 C211.88570049 5.65710148 212 8.47469371 212 15 C141.38 15 70.76 15 -2 15 C-2 8.47469371 -1.88570049 5.65710148 0 0 Z " fill="#FDC377" transform="translate(37,359)"/>
<path d="M0 0 C2.02675458 3.43667081 2.0573676 5.51167186 1.4375 9.4375 C-2.77745528 15.35482382 -8.34751962 15.99307362 -15.1875 17.375 C-16.31800781 17.61879395 -17.44851563 17.86258789 -18.61328125 18.11376953 C-21.01445331 18.63118381 -23.41718393 19.14140926 -25.82128906 19.64501953 C-29.62511427 20.45076324 -33.41841199 21.29507597 -37.2109375 22.15234375 C-47.12184084 24.39089684 -47.12184084 24.39089684 -51.375 25.3359375 C-52.33019531 25.54911621 -53.28539062 25.76229492 -54.26953125 25.98193359 C-56.5625 26.4375 -56.5625 26.4375 -58.5625 26.4375 C-58.5625 47.8875 -58.5625 69.3375 -58.5625 91.4375 C-63.5125 91.4375 -68.4625 91.4375 -73.5625 91.4375 C-73.5625 66.0275 -73.5625 40.6175 -73.5625 14.4375 C-68.2103857 12.6534619 -63.34912571 11.04418775 -57.9296875 9.82421875 C-56.11827271 9.41055054 -56.11827271 9.41055054 -54.27026367 8.98852539 C-53.00545166 8.70356201 -51.74063965 8.41859863 -50.4375 8.125 C-39.89385196 5.7287828 -29.40766918 3.19170596 -19.00927734 0.21557617 C-5.65933675 -3.45081509 -5.65933675 -3.45081509 0 0 Z " fill="#FAD543" transform="translate(299.5625,17.5625)"/>
<path d="M0 0 C5.28 0 10.56 0 16 0 C16 43.23 16 86.46 16 131 C10.72 131 5.44 131 0 131 C0 87.77 0 44.54 0 0 Z " fill="#ECC93F" transform="translate(380,223)"/>
<path d="M0 0 C32.01 0 64.02 0 97 0 C93.1962705 3.0429836 89.36376639 5.99722521 85.4375 8.875 C84.80199219 9.34115723 84.16648437 9.80731445 83.51171875 10.28759766 C75.49688962 16.13620508 67.36127638 21.81866974 59.19140625 27.44824219 C57.77734418 28.44955441 56.38655748 29.48498401 55.02734375 30.55957031 C50.67190111 33.97196085 50.67190111 33.97196085 47.47265625 34.10546875 C44.11490028 32.60429191 41.32617788 30.55156715 38.4375 28.3125 C37.11100537 27.3116376 35.78278575 26.31305857 34.453125 25.31640625 C33.74091797 24.78160645 33.02871094 24.24680664 32.29492188 23.69580078 C28.14972149 20.63276228 23.91680497 17.69524595 19.6875 14.75 C18.87659912 14.18450439 18.06569824 13.61900879 17.23022461 13.03637695 C16.43624268 12.48296631 15.64226074 11.92955566 14.82421875 11.359375 C14.04353027 10.81474609 13.2628418 10.27011719 12.45849609 9.70898438 C10.69947729 8.48623049 8.93629922 7.26945141 7.17041016 6.05664062 C6.25437012 5.42435547 5.33833008 4.79207031 4.39453125 4.140625 C3.5538208 3.56344727 2.71311035 2.98626953 1.84692383 2.39160156 C1.23743896 1.93237305 0.6279541 1.47314453 0 1 C0 0.67 0 0.34 0 0 Z " fill="#F6A708" transform="translate(127,429)"/>
<path d="M0 0 C4.95 0 9.9 0 15 0 C15 35.97 15 71.94 15 109 C10.05 109 5.1 109 0 109 C0 73.03 0 37.06 0 0 Z " fill="#FDD844" transform="translate(411,245)"/>
<path d="M0 0 C4.95 0 9.9 0 15 0 C15 35.97 15 71.94 15 109 C11.37 109 7.74 109 4 109 C-1.25855923 98.10532063 -0.50994118 87.3089338 -0.390625 75.48828125 C-0.383154 73.30682395 -0.37746513 71.12535988 -0.37347412 68.94389343 C-0.35828553 63.23427425 -0.31906253 57.52506952 -0.2746582 51.81561279 C-0.23355874 45.97674158 -0.21543188 40.13780265 -0.1953125 34.29882812 C-0.15256137 22.86570448 -0.08439285 11.43288686 0 0 Z " fill="#FDD743" transform="translate(351,245)"/>
<path d="M0 0 C4.95 0 9.9 0 15 0 C15.25221074 9.63445046 15.45237099 19.26658133 15.56993389 28.90363407 C15.62646359 33.3824328 15.70260514 37.8587892 15.82983398 42.33618164 C16.5072649 66.80851862 14.20870643 86.55538048 4 109 C2.68 109 1.36 109 0 109 C0 73.03 0 37.06 0 0 Z " fill="#FAD543" transform="translate(441,245)"/>
<path d="M0 0 C4.95 0 9.9 0 15 0 C15 27.06 15 54.12 15 82 C10.05 82 5.1 82 0 82 C0 54.94 0 27.88 0 0 Z " fill="#FBD743" transform="translate(471,212)"/>
<path d="M0 0 C26.4 0 52.8 0 80 0 C80 4.95 80 9.9 80 15 C53.6 15 27.2 15 0 15 C0 10.05 0 5.1 0 0 Z " fill="#F8FEFF" transform="translate(150,208)"/>
<path d="M0 0 C60.39 0 120.78 0 183 0 C183.33 1.98 183.66 3.96 184 6 C122.95 6 61.9 6 -1 6 C-0.67 4.02 -0.34 2.04 0 0 Z " fill="#FEFEFE" transform="translate(142,124)"/>
<path d="M0 0 C4.95 0 9.9 0 15 0 C15 24.75 15 49.5 15 75 C14.34 73.68 13.68 72.36 13 71 C8.71 71 4.42 71 0 71 C0 47.57 0 24.14 0 0 Z " fill="#FAD543" transform="translate(321,223)"/>
<path d="M0 0 C39.21644498 -2.32032368 39.21644498 -2.32032368 50.07177734 7.14257812 C51.21071864 8.22013554 52.32927292 9.31979229 53.42285156 10.44335938 C55.90935205 12.89752766 58.693003 14.7606729 61.5625 16.75 C63.04261112 17.8320426 64.52220602 18.91479491 66 20 C63.96594945 24.71997603 60.80602213 26.56078562 56.625 29.3125 C55.61566406 30.01342773 55.61566406 30.01342773 54.5859375 30.72851562 C53.93109375 31.16486328 53.27625 31.60121094 52.6015625 32.05078125 C52.00682129 32.44950439 51.41208008 32.84822754 50.79931641 33.2590332 C48.40789112 34.24383317 47.39164398 33.93175719 45 33 C42.97973633 31.79174805 42.97973633 31.79174805 40.83203125 30.26171875 C40.02926758 29.69453125 39.22650391 29.12734375 38.39941406 28.54296875 C37.1188916 27.62451172 37.1188916 27.62451172 35.8125 26.6875 C34.48750488 25.74777344 34.48750488 25.74777344 33.13574219 24.7890625 C31.31165407 23.49501217 29.48923547 22.1986054 27.66845703 20.89990234 C25.18003372 19.12818137 22.6841205 17.36786347 20.18359375 15.61328125 C18.70571521 14.57554071 17.22784993 13.53778129 15.75 12.5 C14.75190308 11.79943481 14.75190308 11.79943481 13.73364258 11.0847168 C10.30182371 8.66431763 6.89544222 6.21132811 3.515625 3.71875 C2.84305664 3.22310547 2.17048828 2.72746094 1.47753906 2.21679688 C0.98995117 1.81525391 0.50236328 1.41371094 0 1 C0 0.67 0 0.34 0 0 Z " fill="#F7A808" transform="translate(63,429)"/>
<path d="M0 0 C0.66 0 1.32 0 2 0 C2.5735081 5.58636548 3.14305205 11.17311587 3.70898438 16.76025391 C3.90191472 18.65945248 4.09591304 20.55854288 4.29101562 22.45751953 C4.57184637 25.1927537 4.84878842 27.92835848 5.125 30.6640625 C5.21249512 31.50804596 5.29999023 32.35202942 5.39013672 33.22158813 C5.47021973 34.02196503 5.55030273 34.82234192 5.6328125 35.64697266 C5.73940186 36.69288071 5.73940186 36.69288071 5.84814453 37.75991821 C6.03394848 40.5007879 6 43.25283969 6 46 C-6.21 46 -18.42 46 -31 46 C-29.48753569 43.47922615 -27.97089994 40.95726139 -26.31640625 38.52734375 C-23.02543897 33.66785309 -20.643087 29.36067834 -19.0625 23.6875 C-17.47353288 18.3516235 -15.42306748 15.92307072 -10.8046875 12.890625 C-9 12 -9 12 -7 12 C-6.7215625 11.42765625 -6.443125 10.8553125 -6.15625 10.265625 C-5.01726208 8.03382434 -3.80063617 5.89129126 -2.5 3.75 C-2.0771875 3.04359375 -1.654375 2.3371875 -1.21875 1.609375 C-0.61546875 0.81273437 -0.61546875 0.81273437 0 0 Z " fill="#01E4FF" transform="translate(292,459)"/>
<path d="M0 0 C3.76865533 2.04135497 6.83729753 4.68969312 10.08886719 7.46240234 C14.95944525 11.3810151 20.25483235 14.77238883 25.41040039 18.30126953 C26.24821045 18.88118652 27.08602051 19.46110352 27.94921875 20.05859375 C29.08363403 20.83674438 29.08363403 20.83674438 30.2409668 21.63061523 C32 23 32 23 33 25 C26.41655123 25.12701465 19.83341962 25.21444094 13.24902344 25.2746582 C11.01029655 25.29976693 8.77165136 25.33386086 6.53320312 25.37719727 C3.31099266 25.43800719 0.08986806 25.46624677 -3.1328125 25.48828125 C-4.62846237 25.52699089 -4.62846237 25.52699089 -6.15432739 25.56648254 C-10.72166719 25.5683165 -13.9608824 25.54810667 -17.59326172 22.58666992 C-20.88172266 19.05235833 -21.84110759 17.43003171 -22.375 12.625 C-21.92515417 8.27649031 -20.79790424 6.32723747 -18 3 C-12.30609141 -1.08390685 -6.77208176 -1.27746088 0 0 Z " fill="#FA6E41" transform="translate(37,429)"/>
<path d="M0 0 C3.93006351 1.40469067 6.47716195 3.29743637 9 6.6875 C10.32202566 11.06671001 10.3406465 14.61463222 9 19 C6.43464804 22.24044458 4.913195 23.69560167 1 25 C-0.45781722 25.08630926 -1.91927474 25.11770981 -3.37963867 25.11352539 C-4.26032516 25.11344986 -5.14101166 25.11337433 -6.04838562 25.11329651 C-6.99534805 25.10813522 -7.94231049 25.10297394 -8.91796875 25.09765625 C-9.89034988 25.0962413 -10.86273102 25.09482635 -11.86457825 25.09336853 C-14.97225004 25.08776817 -18.07984996 25.07521562 -21.1875 25.0625 C-23.29361875 25.05748505 -25.39973863 25.05292213 -27.50585938 25.04882812 C-32.67060064 25.03779862 -37.83528813 25.02053375 -43 25 C-40.29204684 22.22127343 -37.69336853 19.58951466 -34.46875 17.421875 C-33.82945557 16.98721924 -33.19016113 16.55256348 -32.53149414 16.10473633 C-31.52590454 15.43414185 -31.52590454 15.43414185 -30.5 14.75 C-29.07095633 13.79134509 -27.64258024 12.83169437 -26.21484375 11.87109375 C-25.50569824 11.39397949 -24.79655273 10.91686523 -24.06591797 10.42529297 C-22.13097214 9.0903587 -20.2506733 7.70682402 -18.37890625 6.28515625 C-7.31435848 -2.04287747 -7.31435848 -2.04287747 0 0 Z " fill="#FB6E41" transform="translate(259,429)"/>
<path d="M0 0 C7.26760241 -0.28112708 14.53398914 -0.4927631 21.80597591 -0.62174606 C25.1850555 -0.68373758 28.56035373 -0.76739422 31.93725586 -0.90527344 C47.90249632 -1.50896372 59.90334381 -1.58955161 72.33813477 9.30371094 C75 12 75 12 75 13 C52.23 13.33 29.46 13.66 6 14 C0 3 0 3 0 0 Z " fill="#F7BE73" transform="translate(35,469)"/>
<path d="M0 0 C2.63860342 0.04520543 5.27728142 0.08625927 7.91601562 0.12304688 C14.34148682 0.22159823 20.76414183 0.3716672 27.1875 0.5625 C25.12003505 9.94561016 25.12003505 9.94561016 22.1875 13.5625 C19.24519348 14.16377258 19.24519348 14.16377258 15.60473633 14.13012695 C14.94105545 14.13085709 14.27737457 14.13158722 13.59358215 14.13233948 C11.40139821 14.12885781 9.2113435 14.08997641 7.01953125 14.05078125 C5.49925396 14.04145501 3.97896163 14.034338 2.45866394 14.02934265 C-1.54155005 14.01025745 -5.54085535 13.96114509 -9.54071045 13.90582275 C-13.62271837 13.85466216 -17.70487322 13.83183553 -21.78710938 13.80664062 C-29.7959898 13.75302646 -37.80413185 13.66769687 -45.8125 13.5625 C-45.19831711 12.95075424 -44.58413422 12.33900848 -43.95133972 11.70872498 C-42.47938473 10.23168743 -41.02688088 8.73509171 -39.59106445 7.22290039 C-28.25734063 -2.64605147 -14.19646963 -0.4232587 0 0 Z " fill="#F7BE73" transform="translate(221.8125,468.4375)"/>
<path d="M0 0 C2.76839948 0.80406853 4.59933607 1.820305 6.95996094 3.4597168 C7.76046875 4.01143555 8.56097656 4.5631543 9.38574219 5.1315918 C10.20945313 5.71166992 11.03316406 6.29174805 11.88183594 6.8894043 C12.69007813 7.4462793 13.49832031 8.0031543 14.33105469 8.5769043 C19.89447286 12.44014187 25.47550715 16.36526614 30.63183594 20.7644043 C30.63183594 21.0944043 30.63183594 21.4244043 30.63183594 21.7644043 C10.17183594 21.7644043 -10.28816406 21.7644043 -31.36816406 21.7644043 C-28.04564397 18.4418842 -25.64071616 16.07223686 -21.89941406 13.57299805 C-21.08085938 13.02063477 -20.26230469 12.46827148 -19.41894531 11.89916992 C-18.5771875 11.33907227 -17.73542969 10.77897461 -16.86816406 10.2019043 C-15.18983954 9.07745257 -13.51272082 7.95119866 -11.83691406 6.82299805 C-11.05316406 6.29947754 -10.26941406 5.77595703 -9.46191406 5.23657227 C-7.18074512 3.69108412 -7.18074512 3.69108412 -4.58691406 1.29956055 C-2.36816406 -0.2355957 -2.36816406 -0.2355957 0 0 Z " fill="#FBC075" transform="translate(143.3681640625,460.235595703125)"/>
<path d="M0 0 C1.53113434 0.00045319 1.53113434 0.00045319 3.09320068 0.00091553 C4.18811829 0.02156067 5.28303589 0.04220581 6.41113281 0.06347656 C7.53747131 0.06913635 8.66380981 0.07479614 9.82427979 0.08062744 C13.42137164 0.10301611 17.01746707 0.15321943 20.61425781 0.20410156 C23.05304551 0.22416324 25.49184882 0.24241458 27.93066406 0.25878906 C33.90886856 0.30288913 39.886492 0.36982693 45.86425781 0.45410156 C43.09293713 3.30364741 40.42478401 5.9538824 37.12207031 8.17285156 C36.11080078 8.85927734 36.11080078 8.85927734 35.07910156 9.55957031 C34.38945312 10.01976562 33.69980469 10.47996094 32.98925781 10.95410156 C31.61643955 11.88055925 30.24404048 12.8076384 28.87207031 13.73535156 C28.20208008 14.18136719 27.53208984 14.62738281 26.84179688 15.08691406 C25.52267289 15.99890101 24.23174423 16.9530591 22.97265625 17.94628906 C18.54776277 21.41529056 18.54776277 21.41529056 15.38769531 21.59472656 C11.71322627 19.93382105 8.67621149 17.65511212 5.48925781 15.20410156 C4.21091979 14.24015155 2.93227524 13.27660792 1.65332031 12.31347656 C1.03102539 11.84103516 0.40873047 11.36859375 -0.23242188 10.88183594 C-3.16184216 8.68439496 -6.14709457 6.57009497 -9.13574219 4.45410156 C-6.1767499 0.97944499 -4.56702872 -0.04521811 0 0 Z " fill="#FAD543" transform="translate(159.1357421875,441.5458984375)"/>
<path d="M0 0 C0.33 0 0.66 0 1 0 C2.50790828 25.09032847 0.31522621 44.9279116 -10 68 C-11.32 68 -12.64 68 -14 68 C-16.73904773 42.8097907 -9.4779881 23.00896846 0 0 Z " fill="#FAA908" transform="translate(455,286)"/>
<path d="M0 0 C4.95 0 9.9 0 15 0 C15 35.97 15 71.94 15 109 C11.37 109 7.74 109 4 109 C-0.6833404 98.84968942 -0.4718717 89.74177455 -0.25 78.8125 C-0.22989539 77.08009887 -0.21165166 75.34767511 -0.1953125 73.61523438 C-0.15165056 69.40958797 -0.08284556 65.20504954 0 61 C6.5580902 70.83713529 8.9299581 82.89988573 13 94 C13.33 63.31 13.66 32.62 14 1 C9.38 1 4.76 1 0 1 C0 0.67 0 0.34 0 0 Z " fill="#DF9D0E" transform="translate(351,245)"/>
<path d="M0 0 C3.60366061 1.31339073 6.53104396 2.89544364 9.65234375 5.1171875 C10.94108398 6.02791016 10.94108398 6.02791016 12.25585938 6.95703125 C13.14080078 7.58996094 14.02574219 8.22289062 14.9375 8.875 C16.69621728 10.12295593 18.45532234 11.37036559 20.21484375 12.6171875 C21.03839355 13.20338867 21.86194336 13.78958984 22.71044922 14.39355469 C24.66138465 15.7624132 26.63085308 17.08440049 28.62890625 18.3828125 C29.41136719 18.91648437 30.19382813 19.45015625 31 20 C31 20.33 31 20.66 31 21 C26.79203314 21.14570522 22.58471834 21.23421087 18.375 21.3125 C17.18519531 21.35439453 15.99539062 21.39628906 14.76953125 21.43945312 C4.87939854 21.57758347 4.87939854 21.57758347 1.25 18.59765625 C-1.88294526 14.98062743 -2.87620599 13.36173406 -3.3125 8.5625 C-2.98447096 4.82296894 -2.18092532 2.99877231 0 0 Z " fill="#FC8E17" transform="translate(18,433)"/>
<path d="M0 0 C0.99 0 1.98 0 3 0 C5.5448568 4.64062123 5.4187941 9.01162838 4 14 C1.43464804 17.24044458 -0.086805 18.69560167 -4 20 C-5.70016844 20.08178114 -7.40336297 20.10749501 -9.10546875 20.09765625 C-10.08837891 20.09443359 -11.07128906 20.09121094 -12.08398438 20.08789062 C-13.10814453 20.07951172 -14.13230469 20.07113281 -15.1875 20.0625 C-16.22326172 20.05798828 -17.25902344 20.05347656 -18.32617188 20.04882812 C-20.88417266 20.0370401 -23.44205733 20.02058515 -26 20 C-21.5137346 15.06133809 -16.23593686 11.50599654 -10.75 7.75 C-8.93178148 6.4955308 -7.11404613 5.24036093 -5.296875 3.984375 C-4.49604492 3.43491211 -3.69521484 2.88544922 -2.87011719 2.31933594 C-1.07712431 1.13384751 -1.07712431 1.13384751 0 0 Z " fill="#FD8E17" transform="translate(264,434)"/>
<path d="M0 0 C8.41312733 -1.09448043 15.06531034 -1.34737654 22.19702148 3.73901367 C24.63438881 5.64921583 27.01350651 7.61390994 29.35644531 9.63867188 C31.77659841 11.64324313 34.35272304 13.31024875 37 15 C33.80808587 18.55670432 31.85050736 20.65910642 27 21 C24.92285156 20.01538086 24.92285156 20.01538086 22.890625 18.46484375 C22.13523437 17.90216797 21.37984375 17.33949219 20.6015625 16.75976562 C19.82554688 16.15841797 19.04953125 15.55707031 18.25 14.9375 C16.71479311 13.7782887 15.17833502 12.62073255 13.640625 11.46484375 C12.88458984 10.88976074 12.12855469 10.31467773 11.34960938 9.72216797 C8.20797582 7.41947854 4.94349407 5.33150555 1.64355469 3.26391602 C1.10118164 2.84682373 0.55880859 2.42973145 0 2 C0 1.34 0 0.68 0 0 Z " fill="#F8D342" transform="translate(82,442)"/>
<path d="M0 0 C4.95 0 9.9 0 15 0 C15 35.97 15 71.94 15 109 C10.05 109 5.1 109 0 109 C0 104.71 0 100.42 0 96 C4.62 96 9.24 96 14 96 C14 64.65 14 33.3 14 1 C9.38 1 4.76 1 0 1 C0 0.67 0 0.34 0 0 Z " fill="#E2A618" transform="translate(411,245)"/>
<path d="M0 0 C6.6 0 13.2 0 20 0 C20 4.95 20 9.9 20 15 C13.4 15 6.8 15 0 15 C0 10.05 0 5.1 0 0 Z " fill="#F5FEFF" transform="translate(245,208)"/>
<path d="M0 0 C4.95 0 9.9 0 15 0 C15 4.95 15 9.9 15 15 C10.05 15 5.1 15 0 15 C0 10.05 0 5.1 0 0 Z " fill="#FEFEFE" transform="translate(393,425)"/>
<path d="M0 0 C4.95 0 9.9 0 15 0 C15 4.95 15 9.9 15 15 C10.05 15 5.1 15 0 15 C0 10.05 0 5.1 0 0 Z " fill="#FDFDFD" transform="translate(363,425)"/>
<path d="M0 0 C4.95 0 9.9 0 15 0 C15 4.95 15 9.9 15 15 C10.05 15 5.1 15 0 15 C0 10.05 0 5.1 0 0 Z " fill="#FEFEFD" transform="translate(150,334)"/>
<path d="M0 0 C4.95 0 9.9 0 15 0 C15 4.95 15 9.9 15 15 C10.05 15 5.1 15 0 15 C0 10.05 0 5.1 0 0 Z " fill="#FEFDFC" transform="translate(119,334)"/>
<path d="M0 0 C4.95 0 9.9 0 15 0 C15 4.95 15 9.9 15 15 C10.05 15 5.1 15 0 15 C0 10.05 0 5.1 0 0 Z " fill="#FEFDFC" transform="translate(180,325)"/>
<path d="M0 0 C4.95 0 9.9 0 15 0 C15 4.95 15 9.9 15 15 C10.05 15 5.1 15 0 15 C0 10.05 0 5.1 0 0 Z " fill="#FFFEFD" transform="translate(89,325)"/>
<path d="M0 0 C4.62 0 9.24 0 14 0 C14 4.95 14 9.9 14 15 C9.38 15 4.76 15 0 15 C0 10.05 0 5.1 0 0 Z " fill="#FEFEFE" transform="translate(423,425)"/>
<path d="M0 0 C4.95 0 9.9 0 15 0 C15 5.61 15 11.22 15 17 C14.34 15.68 13.68 14.36 13 13 C8.71 13 4.42 13 0 13 C0 8.71 0 4.42 0 0 Z " fill="#F3A508" transform="translate(321,281)"/>
<path d="M0 0 C4.95 0 9.9 0 15 0 C15 4.29 15 8.58 15 13 C10.05 13 5.1 13 0 13 C0 8.71 0 4.42 0 0 Z " fill="#F5A508" transform="translate(471,281)"/>
<path d="M0 0 C4.95 0 9.9 0 15 0 C15 4.29 15 8.58 15 13 C10.05 13 5.1 13 0 13 C0 8.71 0 4.42 0 0 Z " fill="#F9A909" transform="translate(226,96)"/>
<path d="M0 0 C4.62 0 9.24 0 14 0 C14 4.29 14 8.58 14 13 C9.38 13 4.76 13 0 13 C0 8.71 0 4.42 0 0 Z " fill="#FAAA09" transform="translate(381,341)"/>
</svg>
