<?xml version="1.0" encoding="UTF-8"?>
<svg version="1.1" xmlns="http://www.w3.org/2000/svg" width="512" height="512">
<path d="M0 0 C0.83182114 -0.00453111 1.66364228 -0.00906223 2.52067012 -0.01373065 C5.3002699 -0.0263629 8.07967345 -0.02475503 10.85929871 -0.02310181 C12.85541027 -0.02908779 14.85151952 -0.0358935 16.84762573 -0.04345703 C22.26506972 -0.06111716 27.68245052 -0.06581242 33.09992051 -0.0670886 C36.48607111 -0.06851076 39.87220567 -0.07278159 43.25835228 -0.07808304 C55.07586562 -0.0965834 66.89333386 -0.10475365 78.71086121 -0.10317993 C89.71945077 -0.10197855 100.72784426 -0.12308028 111.73638421 -0.15466726 C121.19390179 -0.18083502 130.65135534 -0.19154701 140.10890883 -0.19026911 C145.75476232 -0.18975963 151.40044155 -0.19543563 157.04625893 -0.21662521 C162.35771629 -0.23601586 167.66883331 -0.23612624 172.98030281 -0.22159195 C174.92611438 -0.21950379 176.8719473 -0.22420514 178.81772232 -0.23631287 C197.63626356 -0.34579827 197.63626356 -0.34579827 204.59440613 4.26742554 C205.66411258 4.93550956 205.66411258 4.93550956 206.75542927 5.61709023 C214.15565287 10.42252692 219.24857668 17.82060325 221.59440613 26.26742554 C221.77768444 28.93645997 221.86690479 31.49823472 221.85167503 34.16456318 C221.85518111 34.94544177 221.85868718 35.72632036 221.8622995 36.53086194 C221.871614 39.15123542 221.86669006 41.77138668 221.86183167 44.39176941 C221.86556789 46.28794352 221.87016931 48.18411609 221.87556231 50.0802862 C221.88781102 55.29409616 221.88752964 60.50784205 221.88517356 65.72166312 C221.88476587 71.3434693 221.89579996 76.96525481 221.9052887 82.58705139 C221.92190976 93.60229959 221.92739874 104.61752639 221.92851345 115.63278607 C221.92946337 124.5851823 221.93357084 133.53757145 221.9399147 142.48996544 C221.95466297 163.73449761 221.96696412 184.97902384 221.96591759 206.22356129 C221.96588643 206.90295394 221.96585527 207.5823466 221.96582317 208.28232692 C221.96565696 211.72576296 221.96545887 215.16919901 221.96525376 218.61263505 C221.96519392 219.6384512 221.96519392 219.6384512 221.96513288 220.68499091 C221.965052 222.06795767 221.96496841 223.45092443 221.96488209 224.83389119 C221.96365657 246.35090687 221.97867014 267.86785953 222.00602722 289.38485718 C222.03675093 313.55974544 222.05393421 337.73457907 222.05210078 361.90949172 C222.05143637 374.70939763 222.05695087 387.50923245 222.07845688 400.30912209 C222.09664878 411.20647839 222.10103233 422.10373139 222.08743803 433.00109629 C222.08089847 438.56168197 222.080827 444.12206933 222.09814453 449.68263626 C222.1138363 454.77350292 222.11105135 459.86401337 222.09357627 464.95487114 C222.0904978 466.7960257 222.09417052 468.63720659 222.10529642 470.47833011 C222.2049773 488.14437738 222.2049773 488.14437738 217.59440613 495.26742554 C217.14910848 495.98204274 216.70381083 496.69665993 216.24501932 497.4329322 C211.12328681 505.30052154 203.61304196 510.08685044 194.59440613 512.26742554 C191.91698331 512.44720903 189.3472383 512.54024355 186.67351151 512.52469444 C185.9022085 512.52820052 185.1309055 512.53170659 184.33622968 512.53531891 C181.75443046 512.54461495 179.17285769 512.53971425 176.59104919 512.53485107 C174.7201862 512.53858824 172.84932476 512.54319002 170.9784658 512.54858172 C165.83918558 512.56081894 160.69997042 512.56055039 155.56067896 512.55819297 C150.01724398 512.55778499 144.47382991 512.56882218 138.93040466 512.57830811 C128.07036645 512.59492304 117.21034996 512.60041788 106.3503001 512.60153286 C97.52284961 512.6024831 88.69540629 512.60659219 79.86795807 512.61293411 C58.91419662 512.62768165 37.96043904 512.6399837 17.00667191 512.638937 C16.33669286 512.63890584 15.66671382 512.63887468 14.97643238 512.63884258 C11.58078238 512.63867637 8.18513238 512.63847829 4.78948238 512.63827316 C4.11510733 512.63823327 3.44073227 512.63819338 2.7459216 512.63815228 C1.38217091 512.63807141 0.01842022 512.63798781 -1.34533047 512.6379015 C-22.56043266 512.63667614 -43.77547091 512.65168696 -64.99055481 512.67904663 C-88.83182573 512.70978053 -112.67305499 512.726953 -136.51435113 512.72512019 C-149.135454 512.7244561 -161.75648476 512.72995643 -174.37757111 512.75147629 C-185.12333153 512.76968111 -195.86898715 512.7740411 -206.61475632 512.76045744 C-212.0966124 512.75392433 -217.57826738 512.75382318 -223.06010437 512.77116394 C-228.08133803 512.78688421 -233.10221095 512.78404149 -238.12343577 512.76659568 C-239.93700539 512.76352351 -241.75060186 512.76716632 -243.56413981 512.77831583 C-257.61308886 512.8589467 -268.85162473 511.34257566 -279.40559387 501.26742554 C-288.35763831 491.88993741 -291.10367799 481.63733271 -290.96809387 468.89242554 C-290.99194153 467.83926147 -291.01578918 466.78609741 -291.0403595 465.70101929 C-291.03154539 461.06479836 -290.89739638 458.10166078 -288.51496887 454.06039429 C-284.0148053 451.46545072 -280.18659136 451.72094862 -275.09309387 451.95492554 C-274.16174622 451.97748413 -273.23039856 452.00004272 -272.27082825 452.02328491 C-269.98075427 452.08200476 -267.69401512 452.16405696 -265.40559387 452.26742554 C-265.37981262 451.40504272 -265.35403137 450.54265991 -265.32746887 449.65414429 C-263.35528056 407.20727314 -243.21090194 369.55338028 -214.40559387 339.26742554 C-213.53547668 338.31803101 -213.53547668 338.31803101 -212.64778137 337.34945679 C-185.88454016 309.03959611 -143.98635564 291.27162095 -105.40559387 289.26742554 C-105.40559387 282.99742554 -105.40559387 276.72742554 -105.40559387 270.26742554 C-111.3890156 270.42478631 -111.3890156 270.42478631 -117.3709259 270.6277771 C-122.90035358 270.70079617 -126.03030588 269.97169909 -130.40559387 266.26742554 C-133.95113066 262.2328492 -134.71498658 258.6977675 -134.61653137 253.32211304 C-134.13427456 248.62457448 -131.90225126 245.49784981 -128.46809387 242.45492554 C-124.01713399 239.27566848 -120.7778193 239.14074827 -115.37117004 239.10629272 C-114.15277939 239.09668518 -112.93438873 239.08707764 -111.67907715 239.07717896 C-110.36550735 239.07292908 -109.05193756 239.0686792 -107.69856262 239.06430054 C-106.33099365 239.05854331 -104.96342468 239.05278565 -103.59585571 239.04702759 C-100.73026658 239.03653591 -97.86470535 239.0306814 -94.99909973 239.02719116 C-91.34078753 239.02171298 -87.68284874 238.9976921 -84.02465343 238.96921921 C-81.19951323 238.95052466 -78.37446172 238.94538361 -75.54926491 238.94385529 C-73.54911607 238.93938557 -71.54901485 238.92077276 -69.5489502 238.90188599 C-56.27685058 238.93432559 -56.27685058 238.93432559 -50.66340637 243.76742554 C-46.81496711 248.86328994 -45.74303173 252.91887556 -46.40559387 259.26742554 C-48.35945308 264.61482968 -51.31795674 267.72360697 -56.40559387 270.26742554 C-57.85407969 270.35084713 -59.30630256 270.37475415 -60.75715637 270.36508179 C-61.52366516 270.36258423 -62.29017395 270.36008667 -63.07991028 270.35751343 C-64.54049866 270.34385742 -64.54049866 270.34385742 -66.03059387 270.32992554 C-69.12434387 270.30930054 -72.21809387 270.28867554 -75.40559387 270.26742554 C-75.40559387 276.53742554 -75.40559387 282.80742554 -75.40559387 289.26742554 C-73.89996887 289.32930054 -72.39434387 289.39117554 -70.84309387 289.45492554 C-64.28294775 289.98916498 -57.95581829 291.30179709 -51.53059387 292.70492554 C-50.5321344 292.92237427 -49.53367493 293.139823 -48.50495911 293.36386108 C-43.69495239 294.43989537 -39.07860445 295.6894583 -34.40559387 297.26742554 C-34.40787219 296.4124101 -34.40787219 296.4124101 -34.41019654 295.54012161 C-34.49973833 261.74530909 -34.56835498 227.95052358 -34.60985519 194.15561825 C-34.61485793 190.0964516 -34.62003522 186.03728519 -34.62532043 181.9781189 C-34.62636968 181.17002309 -34.62741892 180.36192728 -34.62849995 179.52934372 C-34.645898 166.45037012 -34.67743237 153.37146696 -34.71420506 140.29253513 C-34.75163121 126.86907876 -34.77383326 113.44565924 -34.78194785 100.02215284 C-34.78743216 91.74128485 -34.80474434 83.46061596 -34.83725974 75.17980926 C-34.85842832 69.49882563 -34.86478863 63.81794471 -34.85959938 58.13692451 C-34.8570412 54.86079818 -34.86311792 51.58509191 -34.88241577 48.30901146 C-34.90234197 44.751706 -34.89752239 41.19524966 -34.88661194 37.63792419 C-34.8982633 36.60969278 -34.90991467 35.58146136 -34.92191911 34.52207142 C-34.84016746 24.64806325 -31.2490692 16.43123376 -24.40559387 9.26742554 C-16.65007149 2.85080442 -10.14364752 -0.04079395 0 0 Z " fill="#C4B7B1" transform="translate(290.4055938720703,-0.267425537109375)"/>
<path d="M0 0 C0.99574036 -0.00029205 1.99148071 -0.00058411 3.01739502 -0.00088501 C6.29635444 0.00050415 9.57508436 0.01604605 12.85400391 0.03173828 C15.13229244 0.03546988 17.41058258 0.03831616 19.68887329 0.04031372 C25.67625381 0.04793861 31.66353683 0.06757737 37.65087891 0.08972168 C44.83956385 0.11380797 52.02828146 0.12296653 59.21699524 0.1346283 C70.12992005 0.15400233 81.04263103 0.19233307 91.95556641 0.22705078 C91.95556641 24.64705078 91.95556641 49.06705078 91.95556641 74.22705078 C80.57056641 74.72205078 80.57056641 74.72205078 68.95556641 75.22705078 C63.45781258 78.57898139 63.45781258 78.57898139 59.95556641 83.22705078 C59.07986436 88.44970625 59.34130604 92.95302928 61.64306641 97.72705078 C70.35711014 107.1476386 77.19076558 103.58510292 91.95556641 104.22705078 C91.95556641 124.02705078 91.95556641 143.82705078 91.95556641 164.22705078 C87.62173828 164.25283203 83.28791016 164.27861328 78.82275391 164.30517578 C75.35768387 164.33687201 71.89270453 164.3725232 68.42770386 164.4108429 C64.77518843 164.4501545 61.12291563 164.48256629 57.47021484 164.49804688 C53.94913565 164.51323957 50.42871682 164.5477296 46.90793228 164.5953598 C44.91731058 164.6173221 42.92650246 164.61952227 40.9357605 164.62139893 C32.12980581 164.69867082 32.12980581 164.69867082 24.95556641 169.22705078 C22.02458838 172.26337051 21.52392825 174.41669569 21.51806641 178.60205078 C21.66400186 183.57712302 22.48823579 186.47858525 25.95556641 190.22705078 C29.7727508 192.97996855 32.44553379 193.61100489 37.12280273 193.65942383 C38.95413506 193.68911507 38.95413506 193.68911507 40.82246399 193.71940613 C42.1309581 193.72579605 43.43945221 193.73218597 44.78759766 193.73876953 C46.14810296 193.7556259 47.50859278 193.77377744 48.86906433 193.79316711 C52.43805096 193.84056991 56.00697479 193.87044165 59.57617188 193.89660645 C63.22294425 193.9264614 66.86950481 193.97281448 70.51611328 194.01806641 C77.66261422 194.10554137 84.80860536 194.16556699 91.95556641 194.22705078 C91.95556641 204.12705078 91.95556641 214.02705078 91.95556641 224.22705078 C87.62173828 224.25283203 83.28791016 224.27861328 78.82275391 224.30517578 C75.35768387 224.33687201 71.89270453 224.3725232 68.42770386 224.4108429 C64.77518843 224.4501545 61.12291563 224.48256629 57.47021484 224.49804688 C53.94913565 224.51323957 50.42871682 224.5477296 46.90793228 224.5953598 C44.91731058 224.6173221 42.92650246 224.61952227 40.9357605 224.62139893 C32.12980581 224.69867082 32.12980581 224.69867082 24.95556641 229.22705078 C22.02458838 232.26337051 21.52392825 234.41669569 21.51806641 238.60205078 C21.66400186 243.57712302 22.48823579 246.47858525 25.95556641 250.22705078 C44.85502519 261.56672605 69.91816042 253.86578183 91.95556641 254.22705078 C91.95556641 319.56705078 91.95556641 384.90705078 91.95556641 452.22705078 C88.65556641 452.22705078 85.35556641 452.22705078 81.95556641 452.22705078 C81.85759766 451.30408203 81.75962891 450.38111328 81.65869141 449.43017578 C76.10170845 400.95028999 54.72403607 357.608248 16.13769531 326.77441406 C1.44897974 315.40069072 -15.35638586 306.11570449 -32.91162109 299.99658203 C-35.04443359 299.22705078 -35.04443359 299.22705078 -36.04443359 298.22705078 C-36.14466683 296.78121931 -36.17549739 295.3305162 -36.17865467 293.88121796 C-36.18311251 292.9372936 -36.18757036 291.99336925 -36.19216329 291.02084112 C-36.19197893 289.9715551 -36.19179456 288.92226909 -36.19160461 287.84118652 C-36.1952813 286.73595595 -36.19895799 285.63072537 -36.20274609 284.49200296 C-36.21383339 280.75719662 -36.21763533 277.02241804 -36.22143555 273.28759766 C-36.22769652 270.62228222 -36.23432981 267.95696982 -36.24134827 265.29165649 C-36.2611397 257.26823245 -36.27118435 249.2448071 -36.28007606 241.22136474 C-36.28445642 237.44394711 -36.28982405 233.66653089 -36.29506493 229.88911438 C-36.31208335 217.3320927 -36.32657609 204.77507191 -36.33381367 192.21804047 C-36.33572362 188.9570465 -36.33764394 185.69605254 -36.33959961 182.43505859 C-36.34008335 181.62453767 -36.34056709 180.81401675 -36.34106549 179.97893459 C-36.34936028 166.85798581 -36.37468509 153.73712838 -36.40718029 140.61621946 C-36.44026482 127.1475247 -36.45826387 113.67887631 -36.46145791 100.21014071 C-36.46362221 92.64715195 -36.47235861 85.0842962 -36.49791908 77.52134705 C-36.51964555 71.07780935 -36.52766717 64.63443694 -36.5179523 58.19086677 C-36.51341251 54.90461457 -36.51746394 51.61877383 -36.53471375 48.33255386 C-36.55239444 44.76434339 -36.54534402 41.19699517 -36.53218079 37.62878418 C-36.54315003 36.59734394 -36.55411928 35.56590369 -36.56542093 34.50320768 C-36.47751283 24.61932623 -32.89596461 16.39929176 -26.04443359 9.22705078 C-17.62345457 2.25985641 -10.79963049 -0.08330293 0 0 Z " fill="#ECDDD7" transform="translate(292.04443359375,-0.22705078125)"/>
<path d="M0 0 C0 70.29 0 140.58 0 213 C-57.75 213 -115.5 213 -175 213 C-173.82623633 195.39354497 -173.82623633 195.39354497 -172.375 188.875 C-172.20387695 188.09205566 -172.03275391 187.30911133 -171.85644531 186.50244141 C-164.14772078 152.92769541 -147.57041617 124.78197962 -124 100 C-123.41992188 99.36707031 -122.83984375 98.73414063 -122.2421875 98.08203125 C-95.47894629 69.77217057 -53.58076177 52.00419542 -15 50 C-15 43.73 -15 37.46 -15 31 C-20.98342173 31.15736078 -20.98342173 31.15736078 -26.96533203 31.36035156 C-32.49475971 31.43337063 -35.62471201 30.70427356 -40 27 C-43.54553678 22.96542366 -44.30939271 19.43034196 -44.2109375 14.0546875 C-43.72868069 9.35714894 -41.49665739 6.23042427 -38.0625 3.1875 C-27.3886019 -4.43671293 -11.88330443 0 0 0 Z " fill="#DCE7ED" transform="translate(200,239)"/>
<path d="M0 0 C34.515625 0 34.515625 0 39.7421875 4.5 C43.59062676 9.5958644 44.66256214 13.65145002 44 20 C42.04614079 25.34740414 39.08763713 28.45618143 34 31 C32.55151418 31.08342159 31.09929131 31.10732861 29.6484375 31.09765625 C28.88192871 31.09515869 28.11541992 31.09266113 27.32568359 31.09008789 C26.35195801 31.08098389 25.37823242 31.07187988 24.375 31.0625 C21.28125 31.041875 18.1875 31.02125 15 31 C15 37.27 15 43.54 15 50 C17.2584375 50.0928125 17.2584375 50.0928125 19.5625 50.1875 C50.9028309 52.91916606 82.50722712 66.34182793 107 86 C107.5480127 86.43666992 108.09602539 86.87333984 108.66064453 87.32324219 C121.35936088 97.53367172 132.34409457 108.88435871 142 122 C142.41604492 122.55574707 142.83208984 123.11149414 143.26074219 123.68408203 C157.61770393 143.07907357 166.68074687 165.76928324 171.8125 189.1875 C172.03220459 190.17371338 172.25190918 191.15992676 172.47827148 192.17602539 C173.98396121 199.48163437 174 205.26697744 174 213 C116.58 213 59.16 213 0 213 C0 142.71 0 72.42 0 0 Z " fill="#ABCCD1" transform="translate(200,239)"/>
<path d="M0 0 C0.80056483 -0.00427212 1.60112967 -0.00854425 2.42595404 -0.01294583 C5.10580404 -0.02117518 7.78408537 0.00630704 10.46379089 0.03364563 C12.38568586 0.03505612 14.30758353 0.03426411 16.22947693 0.03143311 C21.44619244 0.02999758 26.66233399 0.05940978 31.87891603 0.09430289 C37.33081804 0.12554343 42.78273298 0.12849532 48.23471069 0.13442993 C58.55842565 0.14997511 68.88187611 0.19101286 79.20547456 0.24117738 C90.9586548 0.29704974 102.71184762 0.32455207 114.46512759 0.34965456 C138.64218996 0.40192805 162.8188897 0.4936284 186.99577332 0.60127258 C186.99577332 20.40127258 186.99577332 40.20127258 186.99577332 60.60127258 C165.15088335 60.69167147 143.30614554 60.76531194 121.46111584 60.80852127 C111.317408 60.82912005 101.1738249 60.85718923 91.03019714 60.9030304 C82.18590261 60.94298045 73.34169844 60.9687249 64.49731618 60.97762656 C59.81706858 60.9828275 55.13707943 60.99499536 50.4569149 61.02419281 C46.04511496 61.05149115 41.63367814 61.05968865 37.22180176 61.05370331 C35.6090071 61.05479713 33.99619938 61.06266481 32.38347816 61.07809448 C18.88428036 61.20083273 8.09306861 59.24046752 -2.00422668 49.60127258 C-10.95627112 40.22378445 -13.7023108 29.97117976 -13.56672668 17.22627258 C-13.59057434 16.17310852 -13.614422 15.11994446 -13.63899231 14.03486633 C-13.63705872 13.01779602 -13.63512512 12.00072571 -13.63313293 10.95283508 C-13.63385803 10.04356262 -13.63458313 9.13429016 -13.6353302 8.19746399 C-11.90133399 1.06426642 -6.51370084 -0.12748001 0 0 Z " fill="#AACCD0" transform="translate(13.004226684570313,451.3987274169922)"/>
<path d="M0 0 C24.9473397 -0.06769075 49.89460519 -0.12296652 74.84201336 -0.15543652 C86.42522657 -0.17091285 98.00837871 -0.19201704 109.59155273 -0.22631836 C119.68611228 -0.25619721 129.7806276 -0.27556943 139.87523013 -0.28226548 C145.22145327 -0.2861803 150.56754989 -0.29539665 155.91373253 -0.31719017 C160.94433036 -0.33753135 165.97474939 -0.34383857 171.00538445 -0.33932304 C172.85289735 -0.3401493 174.70041615 -0.34612901 176.54789352 -0.35761642 C179.06870443 -0.37252352 181.58883863 -0.36896024 184.10966492 -0.36076355 C184.84216278 -0.36950207 185.57466065 -0.3782406 186.32935542 -0.38724393 C190.73417511 -0.34848155 193.4838824 0.32083429 197 3 C200.30113601 7.04515572 200.50879864 10.95703609 200.4375 16 C200.42614014 17.12341797 200.42614014 17.12341797 200.41455078 18.26953125 C200.07136728 30.03295989 196.30534876 40.41993687 188.1171875 48.96484375 C180.0382943 56.45762117 170.92218869 60.25721925 159.81825256 60.24050903 C159.13031835 60.24221788 158.44238413 60.24392673 157.73360342 60.24568737 C155.44737489 60.24896007 153.16144526 60.23801564 150.87524414 60.22705078 C149.22891242 60.22648619 147.5825802 60.22680417 145.93624878 60.22793579 C141.48014943 60.22850842 137.02415826 60.21676867 132.568084 60.20278788 C127.9062704 60.19026552 123.24445417 60.18910883 118.58262634 60.18673706 C109.76071815 60.18052672 100.93885967 60.16412192 92.11697334 60.14403808 C82.07105991 60.12166522 72.02514408 60.11068216 61.97921193 60.10064721 C41.31944073 60.0797553 20.65973766 60.04308462 0 60 C0 40.2 0 20.4 0 0 Z " fill="#7C96A6" transform="translate(200,452)"/>
<path d="M0 0 C1.52241051 -0.01062721 1.52241051 -0.01062721 3.07557678 -0.02146912 C4.73702477 -0.01775299 4.73702477 -0.01775299 6.43203735 -0.01396179 C8.18872993 -0.02162819 8.18872993 -0.02162819 9.98091125 -0.02944946 C13.18970093 -0.040967 16.39833039 -0.04341906 19.6071353 -0.04088616 C22.28844925 -0.03981563 24.96973944 -0.04470205 27.6510483 -0.04949158 C33.97894167 -0.06058413 40.30677568 -0.06102592 46.63467407 -0.05497742 C53.15578981 -0.04893989 59.67668966 -0.06124344 66.19776857 -0.08254749 C71.80215686 -0.10018139 77.40647655 -0.10616195 83.01089156 -0.10290974 C86.35565546 -0.10109922 89.70014258 -0.10502715 93.0449028 -0.11762428 C96.77698155 -0.12995399 100.50856041 -0.12321702 104.2406311 -0.11161804 C105.89600639 -0.12308365 105.89600639 -0.12308365 107.58482361 -0.13478088 C114.84650166 -0.08487232 119.31237394 0.78423191 124.77822876 5.88569641 C127.67202439 9.65044024 128.24299357 13.58920448 127.96572876 18.26069641 C126.23992935 23.53961225 123.32795591 26.07990578 118.96572876 29.26069641 C116.02711752 30.24023349 114.11439879 30.39302363 111.05171204 30.40786743 C110.03814636 30.41502274 109.02458069 30.42217804 107.9803009 30.42955017 C106.86907364 30.43223907 105.75784637 30.43492798 104.61294556 30.43769836 C102.85647202 30.44755516 102.85647202 30.44755516 101.06451416 30.45761108 C97.18133191 30.47735594 93.29816317 30.4890106 89.41494751 30.49897766 C88.07686658 30.50302611 86.73878585 30.50714306 85.40070534 30.51132774 C79.11414491 30.53037321 72.82759619 30.54460592 66.54101247 30.55293971 C59.28954989 30.56271196 52.03839257 30.58903345 44.78703755 30.62944061 C39.17843453 30.65961903 33.56991893 30.67441018 27.9612363 30.67772073 C24.61298926 30.68006921 21.26532745 30.69097941 17.91711998 30.7141819 C14.18006316 30.73847208 10.44380678 30.73762638 6.70669556 30.73066711 C5.60154099 30.74347717 4.49638641 30.75628723 3.35774231 30.76948547 C-2.77383963 30.72782644 -6.3762854 30.37112718 -11.03427124 26.26069641 C-15.15879962 21.81054737 -15.76575216 17.82923481 -15.55770874 11.95600891 C-14.71582466 7.62093415 -12.45510988 4.95186076 -9.03427124 2.26069641 C-5.91313869 0.40131678 -3.61579126 0.00842713 0 0 Z " fill="#686363" transform="translate(328.0342712402344,223.7393035888672)"/>
<path d="M0 0 C1.52241051 -0.01062721 1.52241051 -0.01062721 3.07557678 -0.02146912 C4.73702477 -0.01775299 4.73702477 -0.01775299 6.43203735 -0.01396179 C8.18872993 -0.02162819 8.18872993 -0.02162819 9.98091125 -0.02944946 C13.18970093 -0.040967 16.39833039 -0.04341906 19.6071353 -0.04088616 C22.28844925 -0.03981563 24.96973944 -0.04470205 27.6510483 -0.04949158 C33.97894167 -0.06058413 40.30677568 -0.06102592 46.63467407 -0.05497742 C53.15578981 -0.04893989 59.67668966 -0.06124344 66.19776857 -0.08254749 C71.80215686 -0.10018139 77.40647655 -0.10616195 83.01089156 -0.10290974 C86.35565546 -0.10109922 89.70014258 -0.10502715 93.0449028 -0.11762428 C96.77698155 -0.12995399 100.50856041 -0.12321702 104.2406311 -0.11161804 C105.89600639 -0.12308365 105.89600639 -0.12308365 107.58482361 -0.13478088 C114.84650166 -0.08487232 119.31237394 0.78423191 124.77822876 5.88569641 C127.67202439 9.65044024 128.24299357 13.58920448 127.96572876 18.26069641 C126.23992935 23.53961225 123.32795591 26.07990578 118.96572876 29.26069641 C116.02711752 30.24023349 114.11439879 30.39302363 111.05171204 30.40786743 C110.03814636 30.41502274 109.02458069 30.42217804 107.9803009 30.42955017 C106.86907364 30.43223907 105.75784637 30.43492798 104.61294556 30.43769836 C102.85647202 30.44755516 102.85647202 30.44755516 101.06451416 30.45761108 C97.18133191 30.47735594 93.29816317 30.4890106 89.41494751 30.49897766 C88.07686658 30.50302611 86.73878585 30.50714306 85.40070534 30.51132774 C79.11414491 30.53037321 72.82759619 30.54460592 66.54101247 30.55293971 C59.28954989 30.56271196 52.03839257 30.58903345 44.78703755 30.62944061 C39.17843453 30.65961903 33.56991893 30.67441018 27.9612363 30.67772073 C24.61298926 30.68006921 21.26532745 30.69097941 17.91711998 30.7141819 C14.18006316 30.73847208 10.44380678 30.73762638 6.70669556 30.73066711 C5.60154099 30.74347717 4.49638641 30.75628723 3.35774231 30.76948547 C-2.77383963 30.72782644 -6.3762854 30.37112718 -11.03427124 26.26069641 C-15.15879962 21.81054737 -15.76575216 17.82923481 -15.55770874 11.95600891 C-14.71582466 7.62093415 -12.45510988 4.95186076 -9.03427124 2.26069641 C-5.91313869 0.40131678 -3.61579126 0.00842713 0 0 Z " fill="#686363" transform="translate(328.0342712402344,163.7393035888672)"/>
<path d="M0 0 C5.35755096 1.92063148 8.45837216 4.91674432 11 10 C11.62383595 14.87483233 11.85026478 19.47232301 9.0625 23.6875 C6.29054451 27.03564848 2.91393382 29.48642464 -0.546875 32.08203125 C-8.40773521 38.22802228 -14.26281297 45.33168351 -19.51342773 53.734375 C-22.935872 59.17463088 -26.49429448 64.29612474 -33 66 C-37.22377917 66.46077591 -39.40798738 66.31341845 -43.1875 64.3125 C-47.63746079 60.65364335 -50.70149278 57.34541389 -51.4375 51.5625 C-51.1914459 37.90649726 -36.10374259 23.07564462 -27 14 C-10.30048276 -1.32850749 -10.30048276 -1.32850749 0 0 Z " fill="#ABCCD1" transform="translate(124,335)"/>
<path d="M0 0 C1.22096375 0.00015106 2.44192749 0.00030212 3.69989014 0.00045776 C5.67037323 0.01594162 5.67037323 0.01594162 7.68066406 0.03173828 C9.04258008 0.03547037 10.40449879 0.03831642 11.76641846 0.04031372 C15.34376492 0.04793484 18.92094792 0.06757009 22.49822998 0.08972168 C26.15146636 0.110213 29.80473004 0.11943216 33.45800781 0.12939453 C40.6209124 0.14975526 47.78336863 0.18890505 54.94628906 0.22705078 C54.94628906 10.12705078 54.94628906 20.02705078 54.94628906 30.22705078 C47.10314238 30.31103451 39.26163272 30.39115819 31.41842651 30.43405151 C27.76573362 30.4551367 24.1134146 30.48329231 20.4609375 30.52880859 C16.94013919 30.57240721 13.41970245 30.5962171 9.89865494 30.60655975 C7.90780959 30.61750084 5.91710884 30.64870477 3.92648315 30.68023682 C-7.30129321 30.68301544 -7.30129321 30.68301544 -12.05371094 26.22705078 C-16.17823932 21.77690174 -16.78519186 17.79558918 -16.57714844 11.92236328 C-15.73526435 7.58728852 -13.47454958 4.91821513 -10.05371094 2.22705078 C-6.64690594 0.11850886 -3.97283552 -0.01641668 0 0 Z " fill="#908B8B" transform="translate(329.0537109375,223.77294921875)"/>
<path d="M0 0 C1.22096375 0.00015106 2.44192749 0.00030212 3.69989014 0.00045776 C5.67037323 0.01594162 5.67037323 0.01594162 7.68066406 0.03173828 C9.04258008 0.03547037 10.40449879 0.03831642 11.76641846 0.04031372 C15.34376492 0.04793484 18.92094792 0.06757009 22.49822998 0.08972168 C26.15146636 0.110213 29.80473004 0.11943216 33.45800781 0.12939453 C40.6209124 0.14975526 47.78336863 0.18890505 54.94628906 0.22705078 C54.94628906 10.12705078 54.94628906 20.02705078 54.94628906 30.22705078 C47.10314238 30.31103451 39.26163272 30.39115819 31.41842651 30.43405151 C27.76573362 30.4551367 24.1134146 30.48329231 20.4609375 30.52880859 C16.94013919 30.57240721 13.41970245 30.5962171 9.89865494 30.60655975 C7.90780959 30.61750084 5.91710884 30.64870477 3.92648315 30.68023682 C-7.30129321 30.68301544 -7.30129321 30.68301544 -12.05371094 26.22705078 C-16.17823932 21.77690174 -16.78519186 17.79558918 -16.57714844 11.92236328 C-15.73526435 7.58728852 -13.47454958 4.91821513 -10.05371094 2.22705078 C-6.64690594 0.11850886 -3.97283552 -0.01641668 0 0 Z " fill="#908B8B" transform="translate(329.0537109375,163.77294921875)"/>
<path d="M0 0 C0.88126556 -0.00953201 1.76253113 -0.01906403 2.67050171 -0.02888489 C4.08778061 -0.02751778 4.08778061 -0.02751778 5.53369141 -0.02612305 C7.00208969 -0.03255074 7.00208969 -0.03255074 8.50015259 -0.03910828 C10.56959256 -0.04484716 12.63905271 -0.04535509 14.70849609 -0.04101562 C17.86672609 -0.03786031 21.024015 -0.06130453 24.18212891 -0.08666992 C26.19514856 -0.08894349 28.20817073 -0.08964614 30.22119141 -0.08862305 C31.16199554 -0.09783279 32.10279968 -0.10704254 33.07211304 -0.11653137 C39.92544005 -0.06843608 44.17869027 1.09853214 49.32275391 5.8996582 C52.21654954 9.66440204 52.78751872 13.60316627 52.51025391 18.2746582 C50.7844545 23.55357405 47.87248105 26.09386757 43.51025391 29.2746582 C40.73572363 30.19950163 39.0036508 30.41519374 36.1340332 30.45166016 C34.81202156 30.47091301 34.81202156 30.47091301 33.46330261 30.49055481 C32.51328873 30.49794174 31.56327484 30.50532867 30.58447266 30.51293945 C29.60412552 30.5210112 28.62377838 30.52908295 27.61372375 30.53739929 C25.53831751 30.551231 23.4628886 30.56195724 21.38745117 30.56982422 C18.22026283 30.58703588 15.05411876 30.63093044 11.88720703 30.67504883 C9.86963657 30.6851762 7.85205725 30.69369216 5.83447266 30.70043945 C4.89053146 30.71794754 3.94659027 30.73545563 2.9740448 30.75349426 C-2.70703871 30.73483638 -5.99965056 30.10172782 -10.48974609 26.2746582 C-14.61427447 21.82450916 -15.22122702 17.8431966 -15.01318359 11.9699707 C-14.17129951 7.63489595 -11.91058474 4.96582255 -8.48974609 2.2746582 C-5.54307585 0.55334159 -3.40122106 0.02028733 0 0 Z " fill="#686363" transform="translate(365.48974609375,73.725341796875)"/>
<path d="M0 0 C7.4559375 -0.0928125 7.4559375 -0.0928125 15.0625 -0.1875 C16.61718994 -0.21481201 18.17187988 -0.24212402 19.77368164 -0.27026367 C21.01496826 -0.27775635 22.25625488 -0.28524902 23.53515625 -0.29296875 C24.797229 -0.3086792 26.05930176 -0.32438965 27.35961914 -0.34057617 C32.08206347 0.10123255 36.0711033 1.33924589 39.7421875 4.5 C43.59062676 9.5958644 44.66256214 13.65145002 44 20 C42.04614079 25.34740414 39.08763713 28.45618143 34 31 C32.55151418 31.08342159 31.09929131 31.10732861 29.6484375 31.09765625 C28.88192871 31.09515869 28.11541992 31.09266113 27.32568359 31.09008789 C26.35195801 31.08098389 25.37823242 31.07187988 24.375 31.0625 C21.28125 31.041875 18.1875 31.02125 15 31 C15 37.27 15 43.54 15 50 C10.05 50 5.1 50 0 50 C0 33.5 0 17 0 0 Z " fill="#7C97A6" transform="translate(200,239)"/>
<path d="M0 0 C1.2487793 0.00249756 2.49755859 0.00499512 3.78417969 0.00756836 C5.36618164 0.01667236 6.94818359 0.02577637 8.578125 0.03515625 C16.126875 0.06609375 16.126875 0.06609375 23.828125 0.09765625 C23.828125 16.59765625 23.828125 33.09765625 23.828125 50.09765625 C18.878125 50.09765625 13.928125 50.09765625 8.828125 50.09765625 C8.828125 43.82765625 8.828125 37.55765625 8.828125 31.09765625 C2.84470327 31.25501703 2.84470327 31.25501703 -3.13720703 31.45800781 C-8.66663471 31.53102688 -11.79658701 30.80192981 -16.171875 27.09765625 C-19.71741178 23.06307991 -20.48126771 19.52799821 -20.3828125 14.15234375 C-19.90055569 9.45480519 -17.66853239 6.32808052 -14.234375 3.28515625 C-9.43915463 -0.14000116 -5.84996976 -0.02397529 0 0 Z " fill="#AACCD1" transform="translate(176.171875,238.90234375)"/>
<path d="M0 0 C3.14664118 3.57316799 4.80576768 6.79144336 5.5625 11.5 C4.86669626 15.82944551 3.92580717 19.65326303 1 23 C-4.8031477 27.07607367 -10.25720685 27.59770812 -17.1875 27.4375 C-18.50137695 27.44813477 -18.50137695 27.44813477 -19.84179688 27.45898438 C-24.68569102 27.41124319 -28.10838113 27.18813392 -32 24 C-35.53996964 19.31193209 -36.84076792 15.40884967 -36.5703125 9.50390625 C-35.49734351 4.79313145 -32.81978722 1.8347215 -29 -1 C-20.86520773 -4.79097115 -7.50893788 -5.00595859 0 0 Z " fill="#ABCCD1" transform="translate(190,319)"/>
<path d="M0 0 C0.92393555 0.00499512 1.84787109 0.00999023 2.79980469 0.01513672 C3.96415039 0.03334473 5.12849609 0.05155273 6.328125 0.0703125 C11.896875 0.1321875 11.896875 0.1321875 17.578125 0.1953125 C17.578125 10.0953125 17.578125 19.9953125 17.578125 30.1953125 C12.07125 30.3190625 12.07125 30.3190625 6.453125 30.4453125 C5.3069873 30.48172852 4.16084961 30.51814453 2.97998047 30.55566406 C-3.17537899 30.62258188 -6.7662586 30.34455504 -11.421875 26.1953125 C-15.54640338 21.74516346 -16.15335592 17.7638509 -15.9453125 11.890625 C-15.10342842 7.55555024 -12.84271364 4.88647685 -9.421875 2.1953125 C-6.18065215 0.23043307 -3.76657126 -0.04185079 0 0 Z " fill="#908B8B" transform="translate(366.421875,73.8046875)"/>
<path d="M0 0 C0 2.31 0 4.62 0 7 C-5.61 7 -11.22 7 -17 7 C-14.28871865 5.1924791 -11.9530864 4.10554009 -8.9375 2.9375 C-1.38867925 0 -1.38867925 0 0 0 Z " fill="#E6DAD5" transform="translate(384,505)"/>
</svg>
